HIERARCHY
ROOT root
{
	OFFSET	0	13.1	24.9
	CHANNELS 6  Xposition Yposition Zposition Xrotation Yrotation Zrotation
	JOINT spine_1
	{
		OFFSET	0	9.99999	0
		CHANNELS 3  Xrotation Yrotation Zrotation
		JOINT spine_2
		{
			OFFSET	0	112	-10
			CHANNELS 3  Xrotation Yrotation Zrotation
			JOINT spine_3
			{
				OFFSET	0	206.5	19.3
				CHANNELS 3  Xrotation Yrotation Zrotation
				JOINT spine_4
				{
					OFFSET	0	110.4	14.6
					CHANNELS 3  Xrotation Yrotation Zrotation
					JOINT neck_1
					{
						OFFSET	0	71.8	-50.3
						CHANNELS 3  Xrotation Yrotation Zrotation
						JOINT neck_2
						{
							OFFSET	0	86.2	-25.8
							CHANNELS 3  Xrotation Yrotation Zrotation
							JOINT head_ee
							{
								OFFSET	0	179.8	-8.7
								CHANNELS 3  Xrotation Yrotation Zrotation
								End Site
								{
									OFFSET	1	0	0
								}
							}
						}
					}
					JOINT left_clavicle
					{
						OFFSET	-43.2	22.4	-70.8
						CHANNELS 3  Xrotation Yrotation Zrotation
						JOINT left_shoulder
						{
							OFFSET	-93.9	-5.79999	48.7
							CHANNELS 3  Xrotation Yrotation Zrotation
							JOINT left_elbow
							{
								OFFSET	-291.4	-30.8	15.2
								CHANNELS 3  Xrotation Yrotation Zrotation
								JOINT left_lowarm_twist
								{
									OFFSET	-110.7	-3.89999	13.6
									CHANNELS 3  Xrotation Yrotation Zrotation
									JOINT left_hand
									{
										OFFSET	-110.7	-3.89999	13.6
										CHANNELS 3  Xrotation Yrotation Zrotation
										JOINT left_ee
										{
											OFFSET	-80.8	-5.10001	12.1
											CHANNELS 3  Xrotation Yrotation Zrotation
											End Site
											{
												OFFSET	1	0	0
											}
										}
									}
								}
							}
						}
					}
					JOINT right_clavicle
					{
						OFFSET	43.2	22.4	-70.8
						CHANNELS 3  Xrotation Yrotation Zrotation
						JOINT right_shoulder
						{
							OFFSET	93.9	-5.79999	48.7
							CHANNELS 3  Xrotation Yrotation Zrotation
							JOINT right_elbow
							{
								OFFSET	291.4	-30.8	15.2
								CHANNELS 3  Xrotation Yrotation Zrotation
								JOINT right_lowarm_twist
								{
									OFFSET	110.7	-3.89999	13.6
									CHANNELS 3  Xrotation Yrotation Zrotation
									JOINT right_hand
									{
										OFFSET	110.7	-3.89999	13.6
										CHANNELS 3  Xrotation Yrotation Zrotation
										JOINT right_ee
										{
											OFFSET	80.8	-5.10001	12.1
											CHANNELS 3  Xrotation Yrotation Zrotation
											End Site
											{
												OFFSET	1	0	0
											}
										}
									}
								}
							}
						}
					}
				}
			}
		}
	}
	JOINT left_hip
	{
		OFFSET	-82.8	-127.5	0.300001
		CHANNELS 3  Xrotation Yrotation Zrotation
		JOINT left_knee
		{
			OFFSET	-28.2	-396.7	2.2
			CHANNELS 3  Xrotation Yrotation Zrotation
			JOINT left_ankle
			{
				OFFSET	-11.7	-411.3	35.4
				CHANNELS 3  Xrotation Yrotation Zrotation
				JOINT left_toes
				{
					OFFSET	0	-60	-88.6
					CHANNELS 3  Xrotation Yrotation Zrotation
					JOINT left_foot_ee
					{
						OFFSET	-22.5	-16.5	-42.2
						CHANNELS 3  Xrotation Yrotation Zrotation
						End Site
						{
							OFFSET	1	0	0
						}
					}
				}
			}
		}
	}
	JOINT right_hip
	{
		OFFSET	82.8	-127.5	0.300001
		CHANNELS 3  Xrotation Yrotation Zrotation
		JOINT right_knee
		{
			OFFSET	28.2	-396.7	2.2
			CHANNELS 3  Xrotation Yrotation Zrotation
			JOINT right_ankle
			{
				OFFSET	11.7	-411.3	35.4
				CHANNELS 3  Xrotation Yrotation Zrotation
				JOINT right_toes
				{
					OFFSET	0	-60	-88.6
					CHANNELS 3  Xrotation Yrotation Zrotation
					JOINT right_foot_ee
					{
						OFFSET	22.5	-16.5	-42.2
						CHANNELS 3  Xrotation Yrotation Zrotation
						End Site
						{
							OFFSET	1	0	0
						}
					}
				}
			}
		}
	}
}
MOTION
Frames: 9
Frame Time: 0.02
2625.65595334 747.454 -1582.08313398 21.7218782846 60.7398044893 -16.3742334904 -3.62462 -0.0082613 -0.807769 -3.62426 0.0431542 -0.806657 -3.62442 0.260605 -0.764622 -3.62521 0.136581 -0.796182 2.35396 11.7088 5.37245 2.6027 15.993 6.81392 -0.0 0.0 -0.0 7.21956 12.0945 13.6661 -18.7884 -13.114 64.2797 0.274447 -7.74224 0.0185709 -48.9884 -3.95371 4.62895 1.31764 13.9242 14.0942 -0.0 0.0 -0.0 5.54706 7.67684 -10.4514 3.21147 21.1788 -70.6292 1.84559 42.431 -0.716485 71.7562 2.92461 8.07853 -4.11923 -25.5283 13.1341 0.0 0.0 0.0 13.4486 21.5161 -25.5049 -47.437 -1.00635 7.00618 16.1298 22.9044 -2.32375 -16.1627 0.0 0.0 -0.0 0.0 -0.0 10.8172 24.0504 -13.3111 -15.6394 -0.322079 -2.37099 9.45518 -7.39474 1.34654 9.56072 -0.0 -0.0 0.0 0.0 0.0 
2617.5253156 750.103 -1576.02441395 23.7250675288 63.5234418371 -18.1753011517 -3.62643 0.097358 -0.869417 -3.62603 0.152482 -0.861461 -3.62792 0.380767 -0.787648 -3.6287 0.251599 -0.837894 2.43705 11.4627 4.87337 2.67946 15.9668 6.2398 -0.0 0.0 -0.0 6.64697 12.4204 12.657 -19.0488 -12.9207 64.9154 0.375004 -10.5238 0.0345368 -48.807 -3.93263 4.61906 1.70265 14.1618 16.6813 -0.0 0.0 -0.0 5.43716 6.46966 -10.2821 3.61682 20.7757 -70.4941 2.00795 44.8421 -0.82855 72.0393 2.95468 8.09892 -3.75191 -25.0591 11.3072 0.0 0.0 0.0 13.844 20.399 -25.4241 -41.0868 -0.537351 6.14974 14.2908 22.8146 -2.07192 -16.0936 0.0 0.0 -0.0 0.0 -0.0 10.5684 24.0719 -13.6234 -14.9127 -0.321537 -2.25949 8.8626 -7.37721 1.26467 9.63474 -0.0 -0.0 0.0 0.0 0.0 
2613.06325831 751.955 -1573.0260935 23.6098221329 65.671596453 -18.1818624265 -3.58604 0.0807231 -0.793696 -3.5857 0.131063 -0.786952 -3.58716 0.339394 -0.722002 -3.58782 0.221112 -0.766539 2.65902 12.0905 5.41327 2.92935 16.5627 6.86456 -0.0 0.0 -0.0 6.39044 12.1473 12.2253 -19.4019 -12.69 65.1938 0.365687 -10.268 0.0328555 -48.7085 -3.9212 4.61366 1.67615 13.5238 16.293 -0.0 0.0 -0.0 5.39617 6.68268 -10.1881 3.82712 21.367 -71.0804 2.12442 46.4561 -0.911846 72.2494 2.97706 8.11395 -3.5946 -24.1208 10.9656 0.0 0.0 0.0 15.325 19.3988 -25.9871 -39.7934 -0.453679 5.96935 13.0649 21.4809 -1.89102 -16.4968 0.0 0.0 -0.0 0.0 -0.0 10.3046 23.5042 -13.6557 -12.6406 -0.310723 -1.91107 8.70813 -7.00457 1.24338 9.36219 -0.0 -0.0 0.0 0.0 0.0 
2590.24764307 755.407 -1561.37166582 26.0211022398 68.35324345 -20.3676271362 -3.47297 -0.0541875 -0.779592 -3.47263 -0.00447177 -0.78146 -3.47213 0.205918 -0.753857 -3.47291 0.08428 -0.776915 4.91414 11.7047 3.6966 5.22283 16.8924 4.76261 -0.0 0.0 -0.0 6.43683 13.807 12.2381 -22.1536 -13.278 65.3575 0.354299 -9.95475 0.0308563 -50.3842 -4.11688 4.70284 1.7585 13.8735 16.9517 -0.0 0.0 -0.0 5.55232 6.99515 -10.4946 1.82902 20.4957 -70.1047 2.31217 48.8698 -1.05066 71.5586 2.90368 8.06421 -3.15678 -22.8815 9.13284 0.0 0.0 0.0 15.1965 22.0164 -26.6121 -34.7209 -0.165509 5.24532 9.84025 17.7597 -1.42043 -15.8273 0.0 0.0 -0.0 0.0 -0.0 9.29726 24.0643 -13.5332 -13.4567 -0.316197 -2.03617 8.35496 -6.41266 1.19463 9.2441 -0.0 -0.0 0.0 0.0 0.0 
2567.24414161 754.861 -1553.57393122 23.5048177923 70.0044462274 -16.7993240824 -3.0009 -0.174284 -1.15026 -3.00017 -0.100742 -1.15902 -2.99715 0.205282 -1.14513 -2.99898 0.0218662 -1.16318 6.54051 10.8453 -0.0683134 7.00371 18.4382 0.223725 -0.0 0.0 -0.0 5.07466 18.9999 9.86319 -25.0972 -13.9005 66.3971 0.727991 -19.8306 0.127257 -52.5733 -4.37625 4.81067 1.92677 14.3958 18.2329 -0.0 0.0 -0.0 5.37147 8.43313 -10.0494 -2.25495 18.9483 -68.0996 2.89388 55.0907 -1.5096 71.8094 2.93026 8.08237 -2.16981 -22.5921 3.54469 0.0 0.0 0.0 14.2629 25.1417 -26.7404 -19.249 0.303818 2.92442 5.89975 10.3733 -0.850431 -15.0091 0.0 0.0 -0.0 0.0 -0.0 7.72697 23.7287 -13.8475 -7.65455 -0.238653 -1.14963 10.2544 -9.07668 1.4566 9.01423 -0.0 -0.0 0.0 0.0 0.0 
2552.15875518 757.886 -1548.31972884 20.1984679505 70.5528657615 -12.7921765388 -2.70308 -0.21272 -1.38779 -2.70201 -0.123989 -1.39851 -2.69765 0.238134 -1.38365 -2.70032 0.016645 -1.40389 4.80616 9.69301 -2.37958 5.29438 18.7281 -2.2897 -0.0 0.0 -0.0 3.8879 21.8413 8.06574 -25.2894 -15.0365 67.7973 0.95686 -25.3605 0.215296 -53.2618 -4.45865 4.84253 2.23263 12.7388 19.7354 -0.0 0.0 -0.0 5.57198 9.10588 -10.4308 -5.55246 17.8991 -65.5878 3.22658 57.9551 -1.7872 72.6531 3.02022 8.14262 -1.34411 -20.579 -0.327753 0.0 0.0 0.0 14.5162 29.4439 -25.6167 -5.64898 0.191022 0.845557 0.747455 5.81526 -0.109297 -18.5777 0.0 0.0 -0.0 0.0 -0.0 6.6405 22.3292 -13.071 -5.22612 -0.179622 -0.781664 12.767 -10.9641 1.79958 8.56406 -0.0 -0.0 0.0 0.0 0.0 
2552.02185993 757.886 -1547.86135837 20.3022100398 70.6518788695 -12.9021617408 -2.70308 -0.21272 -1.38779 -2.70201 -0.123989 -1.39851 -2.69765 0.238134 -1.38365 -2.70032 0.016645 -1.40389 4.80616 9.69301 -2.37958 5.29438 18.7281 -2.2897 -0.0 0.0 -0.0 3.8879 21.8413 8.06574 -25.2894 -15.0365 67.7973 0.95686 -25.3605 0.215296 -53.2618 -4.45865 4.84253 2.23263 12.7388 19.7354 -0.0 0.0 -0.0 5.57198 9.10588 -10.4308 -5.55246 17.8991 -65.5878 3.22658 57.9551 -1.7872 72.6531 3.02022 8.14262 -1.34411 -20.579 -0.327753 0.0 0.0 0.0 14.5162 29.4439 -25.6167 -5.64898 0.191022 0.845557 0.747455 5.81526 -0.109297 -18.5777 0.0 0.0 -0.0 0.0 -0.0 6.6405 22.3292 -13.071 -5.22612 -0.179622 -0.781664 12.767 -10.9641 1.79958 8.56406 -0.0 -0.0 0.0 0.0 0.0 
2544.37898497 757.612 -1542.83352184 19.5755871721 70.2670216119 -11.9955464252 -2.44833 -0.130876 -1.72802 -2.44667 -0.0206693 -1.73285 -2.44427 0.416236 -1.68226 -2.44819 0.145373 -1.72687 4.64468 9.51294 -2.7517 5.14156 18.7575 -2.70303 -0.0 0.0 -0.0 3.47904 23.337 7.49364 -24.3496 -15.8194 68.6474 0.951125 -25.2275 0.212846 -54.0817 -4.55725 4.87917 2.75486 12.8655 23.3488 -0.0 0.0 -0.0 5.58234 11.3451 -10.3267 -7.171 17.0928 -63.8788 3.09452 56.8698 -1.67592 74.4316 3.21271 8.26525 -0.837284 -19.3606 -2.80493 0.0 0.0 0.0 14.2991 30.9069 -25.205 -6.50689 0.2127 0.97543 4.4014 4.5916 -0.638024 -17.6936 0.0 0.0 -0.0 0.0 -0.0 4.65493 21.4802 -11.9882 -2.1476 -0.0824492 -0.319251 13.5228 -9.94659 1.89908 8.64124 -0.0 -0.0 0.0 0.0 0.0 
2534.86919166 755.017 -1540.58663204 19.8530730791 69.9006200131 -12.0100808318 -2.22331 -0.402306 -1.95257 -2.22124 -0.277269 -1.9742 -2.20915 0.220425 -1.98135 -2.21461 -0.0951945 -1.99129 3.10764 9.77772 -2.47122 3.55347 19.1413 -2.14848 -0.0 0.0 -0.0 3.63171 22.7417 7.70339 -23.8112 -16.5807 69.6322 0.764574 -20.744 0.139941 -53.1382 -4.44383 4.83688 2.9682 14.6001 25.3613 -0.0 0.0 -0.0 5.71798 11.4682 -10.6055 -8.23205 16.714 -63.2141 3.01151 56.1535 -1.60669 75.2515 3.30271 8.31976 -0.282018 -19.12 -6.03622 0.0 0.0 0.0 13.7476 31.9572 -25.4264 -5.82485 0.195625 0.872154 7.09391 3.42739 -1.02139 -17.0855 0.0 0.0 -0.0 0.0 -0.0 3.17206 21.7857 -11.5756 -1.00695 -0.0401502 -0.149312 15.1056 -7.75856 2.10649 8.18138 -0.0 -0.0 0.0 0.0 0.0 
